<?xml version="1.0" encoding="UTF-8"?>
<!DOCTYPE svg PUBLIC "-//W3C//DTD SVG 1.1//EN" "http://www.w3.org/Graphics/SVG/1.1/DTD/svg11.dtd">
<svg xmlns="http://www.w3.org/2000/svg" version="1.1" width="4320px" height="4320px" style="shape-rendering:geometricPrecision; text-rendering:geometricPrecision; image-rendering:optimizeQuality; fill-rule:evenodd; clip-rule:evenodd" xmlns:xlink="http://www.w3.org/1999/xlink">
<g><path style="opacity:0.998" fill="#d76878" d="M 1948.5,270.5 C 2413.47,260.106 2828.14,397.272 3192.5,682C 3321.19,785.017 3436.02,901.517 3537,1031.5C 3677.49,1214.49 3779.49,1417.82 3843,1641.5C 3913.99,1897.8 3920.99,2155.8 3864,2415.5C 3839.32,2523.51 3803.32,2627.51 3756,2727.5C 3783.43,2366.54 3697.1,2035.88 3497,1735.5C 3345.15,1510.42 3149.65,1334.25 2910.5,1207C 2605.33,1050.75 2282.99,997.749 1943.5,1048C 1815.38,1067.53 1691.38,1101.69 1571.5,1150.5C 1585.02,985.306 1556.19,827.973 1485,678.5C 1436.44,577.216 1376.61,483.549 1305.5,397.5C 1378.28,369.552 1452.61,346.385 1528.5,328C 1666.71,294.66 1806.71,275.493 1948.5,270.5 Z"/></g>
<g><path style="opacity:0.996" fill="#5fb9d2" d="M 1415.5,882.5 C 1422.84,1010.96 1429.17,1139.62 1434.5,1268.5C 1613.45,1228.84 1792.45,1189.68 1971.5,1151C 1792.33,1262.42 1613.33,1374.08 1434.5,1486C 1515.83,1568.67 1597.17,1651.33 1678.5,1734C 1527.99,1694.58 1377.49,1654.75 1227,1614.5C 985.875,1722.93 744.709,1831.26 503.5,1939.5C 513.659,1809.8 558.826,1694.14 639,1592.5C 697.13,1521.03 762.964,1457.86 836.5,1403C 877.668,1374.25 922.668,1353.92 971.5,1342C 941.199,1393.65 911.699,1445.82 883,1498.5C 876.728,1510.71 870.728,1523.04 865,1535.5C 863.107,1540.01 861.941,1544.67 861.5,1549.5C 974.614,1476.24 1087.11,1401.91 1199,1326.5C 1271.45,1178.6 1343.62,1030.6 1415.5,882.5 Z"/></g>
<g><path style="opacity:0.098" fill="#d56679" d="M 1289.5,1126.5 C 1290.83,1127.17 1290.83,1127.17 1289.5,1126.5 Z"/></g>
<g><path style="opacity:0.991" fill="#d76878" d="M 1289.5,1127.5 C 1257.62,1191.6 1225.45,1255.6 1193,1319.5C 1191.83,1320.67 1190.67,1321.83 1189.5,1323C 1083.61,1394.1 977.615,1464.94 871.5,1535.5C 911.723,1463.39 952.223,1391.39 993,1319.5C 1039.6,1261.87 1095.44,1215.71 1160.5,1181C 1201.88,1159.15 1244.88,1141.32 1289.5,1127.5 Z"/></g>
<g><path style="opacity:0.999" fill="#5fb9d2" d="M 2160.5,1132.5 C 2343.07,1128.93 2519.41,1160.09 2689.5,1226C 2810.69,1273.09 2925.02,1332.42 3032.5,1404C 3123.23,1466.57 3205.07,1539.74 3278,1623.5C 3396.02,1759.74 3489.02,1912.08 3557,2080.5C 3641.38,2301.23 3668.72,2528.89 3639,2763.5C 3603.61,3040.79 3501.28,3289.46 3332,3509.5C 3108.82,3786.33 2821.98,3960.5 2471.5,4032C 2271.74,4070.14 2072.41,4068.14 1873.5,4026C 1619.15,3967.68 1405.65,3841.85 1233,3648.5C 1052.85,3438.01 960.354,3193.34 955.5,2914.5C 957.548,2739.65 996.715,2573.65 1073,2416.5C 1125.65,2308.11 1190.98,2208.44 1269,2117.5C 1237.92,2201.15 1215.25,2287.15 1201,2375.5C 1169.59,2574.5 1191.93,2767.17 1268,2953.5C 1329.76,3095.59 1417.6,3219.09 1531.5,3324C 1693.22,3470.06 1880.22,3571.73 2092.5,3629C 2148.72,3642.98 2205.72,3651.65 2263.5,3655C 2117.32,3545.2 1982.49,3422.03 1859,3285.5C 1792.21,3211.87 1732.21,3133.2 1679,3049.5C 1505.27,2764.85 1446.27,2457.85 1502,2128.5C 1526.24,1996.95 1570.4,1872.62 1634.5,1755.5C 1635.67,1755.17 1636.83,1754.83 1638,1754.5C 1676.49,1758.14 1714.99,1761.31 1753.5,1764C 1663.14,1673.97 1573.14,1583.64 1483.5,1493C 1671.9,1374.94 1860.57,1257.27 2049.5,1140C 2062.39,1138.06 2075.39,1136.73 2088.5,1136C 2112.65,1134.63 2136.65,1133.46 2160.5,1132.5 Z"/></g>
<g><path style="opacity:0.306" fill="#d76978" d="M 871.5,1535.5 C 870.833,1536.17 870.833,1536.17 871.5,1535.5 Z"/></g>
<g><path style="opacity:0.994" fill="#adadad" d="M 1227.5,1652.5 C 1305.58,1674.02 1383.58,1695.85 1461.5,1718C 1343.19,1884 1197.19,2019.66 1023.5,2125C 932.778,2178.9 836.778,2220.57 735.5,2250C 898.099,2129.75 1033.93,1984.92 1143,1815.5C 1175.35,1763.47 1203.52,1709.14 1227.5,1652.5 Z"/></g>
<g><path style="opacity:1" fill="#098a9c" d="M 2641.5,1914.5 C 2642.87,1914.34 2644.21,1914.51 2645.5,1915C 2751.44,1997.91 2838.28,2097.08 2906,2212.5C 2907.59,2214.65 2908.26,2216.98 2908,2219.5C 2713.68,2404.02 2494.51,2552.85 2250.5,2666C 2171.47,2701.68 2090.8,2733.18 2008.5,2760.5C 1988.45,2639.91 1989.95,2519.58 2013,2399.5C 2021.86,2352.73 2033.53,2306.73 2048,2261.5C 2250.74,2153.25 2448.57,2037.58 2641.5,1914.5 Z"/></g>
<g><path style="opacity:1" fill="#dfdfdf" d="M 2013.5,2094.5 C 2017.85,2094.33 2022.18,2094.5 2026.5,2095C 1967.29,2228.35 1931.45,2367.85 1919,2513.5C 1910.68,2618.96 1912.01,2724.29 1923,2829.5C 1933.94,2917.15 1954.27,3002.48 1984,3085.5C 2020.04,3184.92 2063.71,3280.92 2115,3373.5C 2171.69,3476.27 2235.36,3574.27 2306,3667.5C 2306.67,3668.17 2306.67,3668.83 2306,3669.5C 2179,3558.5 2060,3439.5 1949,3312.5C 1858.46,3207.94 1778.79,3095.61 1710,2975.5C 1649.94,2870.06 1604.28,2758.72 1573,2641.5C 1539.87,2497.52 1536.87,2352.86 1564,2207.5C 1568.82,2181.38 1574.16,2155.38 1580,2129.5C 1589.38,2127.78 1598.88,2126.61 1608.5,2126C 1743.68,2115.9 1878.68,2105.4 2013.5,2094.5 Z"/></g>
<g><path style="opacity:0.106" fill="#5ebdcf" d="M 1269.5,2115.5 C 1270.83,2116.17 1270.83,2116.17 1269.5,2115.5 Z"/></g>
<g><path style="opacity:1" fill="#098a9c" d="M 3015.5,2367.5 C 3088.99,2480.45 3132.82,2604.11 3147,2738.5C 3148.2,2755.16 3148.87,2771.83 3149,2788.5C 3050.64,2917.86 2936.14,3030.7 2805.5,3127C 2629.01,3254.37 2433.68,3339.87 2219.5,3383.5C 2142.71,3257.56 2086.54,3122.9 2051,2979.5C 2047.77,2964.17 2044.6,2948.84 2041.5,2933.5C 2216.66,2876.25 2383.66,2801.09 2542.5,2708C 2710.83,2609.18 2868.49,2495.68 3015.5,2367.5 Z"/></g>
</svg>
