<?xml version="1.0" encoding="UTF-8"?>
<!DOCTYPE svg PUBLIC "-//W3C//DTD SVG 1.1//EN" "http://www.w3.org/Graphics/SVG/1.1/DTD/svg11.dtd">
<svg xmlns="http://www.w3.org/2000/svg" version="1.1" width="300px" height="300px" style="shape-rendering:geometricPrecision; text-rendering:geometricPrecision; image-rendering:optimizeQuality; fill-rule:evenodd; clip-rule:evenodd" xmlns:xlink="http://www.w3.org/1999/xlink">
<g><path style="opacity:1" fill="#0e131a" d="M 20.5,1.5 C 27.6762,0.794352 34.3429,2.29435 40.5,6C 56.7331,22.2331 72.8997,38.3997 89,54.5C 129.113,30.5138 169.28,30.5138 209.5,54.5C 225.654,37.5123 242.321,21.0123 259.5,5C 278.005,-2.99554 290.505,2.50446 297,21.5C 297.914,27.0298 297.247,32.3631 295,37.5C 278.895,55.607 262.062,73.107 244.5,90C 261.831,118.161 266.331,148.328 258,180.5C 255.108,190.949 250.608,200.616 244.5,209.5C 256.848,222.682 269.682,235.349 283,247.5C 287,252.167 291,256.833 295,261.5C 300.121,277.762 294.955,289.595 279.5,297C 272.129,298.31 265.129,297.31 258.5,294C 242.013,277.68 225.68,261.18 209.5,244.5C 185.722,259.968 159.722,265.468 131.5,261C 115.875,258.738 101.542,253.238 88.5,244.5C 72.3202,261.18 55.9868,277.68 39.5,294C 22.0616,301.862 9.5616,297.029 2,279.5C 0.644204,272.424 1.6442,265.757 5,259.5C 20.8333,242.333 37.3333,225.833 54.5,210C 39.6621,188.145 33.8288,163.978 37,137.5C 38.8753,119.872 44.7087,103.705 54.5,89C 38.6953,74.1958 23.1953,59.0291 8,43.5C -1.55751,30.0256 -0.39084,17.5256 11.5,6C 14.5919,4.45406 17.5919,2.95406 20.5,1.5 Z"/></g>
<g><path style="opacity:1" fill="#3d3938" d="M 267.5,7.5 C 284.68,7.2187 292.18,15.552 290,32.5C 289.439,34.7254 288.439,36.7254 287,38.5C 271.304,53.8619 255.971,69.5286 241,85.5C 239.677,82.9414 237.843,82.2747 235.5,83.5C 257.087,114.923 262.254,148.923 251,185.5C 247.087,195.826 242.253,205.659 236.5,215C 236.833,215.5 237.167,216 237.5,216.5C 239.319,214.089 241.319,213.922 243.5,216C 258.976,231.477 274.143,247.311 289,263.5C 293.449,277.102 288.949,286.268 275.5,291C 270.389,292.111 265.722,291.111 261.5,288C 245.195,272.696 229.195,257.029 213.5,241C 214.833,239.667 216.167,238.333 217.5,237C 216.975,236.308 216.308,235.808 215.5,235.5C 179.902,259.197 142.236,263.03 102.5,247C 97.3343,244.252 92.3343,241.252 87.5,238C 72.1887,254.96 54.8554,271.96 35.5,289C 22.5197,294.429 13.353,290.596 8,277.5C 6.77543,271.732 7.77543,266.399 11,261.5C 25.8042,245.695 40.9709,230.195 56.5,215C 58.4174,215.027 60.084,215.861 61.5,217.5C 61.8333,216.833 62.1667,216.167 62.5,215.5C 34.5181,171.682 34.5181,127.848 62.5,84C 62.1667,83.5 61.8333,83 61.5,82.5C 60.1861,83.3128 59.0195,84.3128 58,85.5C 42.6667,70.1667 27.3333,54.8333 12,39.5C 4.31381,26.4122 7.14714,16.2455 20.5,9C 26.0642,7.99 31.3975,8.65666 36.5,11C 52.3333,26.1667 68.1667,41.3333 84,56.5C 83.22,58.7295 82.3867,61.0628 81.5,63.5C 89.9135,58.791 98.5802,54.291 107.5,50C 145.476,36.4624 181.309,40.629 215,62.5C 215.5,62.1667 216,61.8333 216.5,61.5C 215.167,60.3801 214.667,59.0468 215,57.5C 230.014,42.6528 244.847,27.6528 259.5,12.5C 262.231,10.8084 264.898,9.14175 267.5,7.5 Z"/></g>
<g><path style="opacity:1" fill="#13181e" d="M 138.5,80.5 C 180.198,77.9092 206.698,96.5758 218,136.5C 222.13,177.663 204.63,204.496 165.5,217C 125.948,223.314 98.4479,208.147 83,171.5C 73.2192,130.564 87.3858,101.397 125.5,84C 129.999,82.961 134.332,81.7943 138.5,80.5 Z"/></g>
<g><path style="opacity:1" fill="#fdfdfd" d="M 212.5,162.5 C 194.272,192.765 167.606,204.265 132.5,197C 112.381,191.693 97.0474,180.193 86.5,162.5C 81.4157,128.506 94.4157,104.006 125.5,89C 156.203,79.5433 181.703,87.0433 202,111.5C 212.369,127.038 215.869,144.038 212.5,162.5 Z"/></g>
<g><path style="opacity:1" fill="#10151c" d="M 142.5,126.5 C 156.44,124.414 166.273,129.747 172,142.5C 173.687,164.575 163.52,174.408 141.5,172C 127.736,165.181 123.236,154.347 128,139.5C 131.162,133.164 135.996,128.831 142.5,126.5 Z"/></g>
<g><path style="opacity:1" fill="#f6f6f6" d="M 142.5,134.5 C 149.603,133.202 153.603,136.035 154.5,143C 154.333,148.5 151.5,151.333 146,151.5C 138.997,150.569 136.33,146.569 138,139.5C 139.059,137.341 140.559,135.674 142.5,134.5 Z"/></g>
<g><path style="opacity:1" fill="#d7d8d8" d="M 86.5,162.5 C 97.0474,180.193 112.381,191.693 132.5,197C 167.606,204.265 194.272,192.765 212.5,162.5C 206.869,186.968 192.202,203.468 168.5,212C 132.915,219.956 106.748,207.789 90,175.5C 88.3616,171.278 87.1949,166.945 86.5,162.5 Z"/></g>
</svg>
