<?xml version="1.0" encoding="UTF-8"?>
<!DOCTYPE svg PUBLIC "-//W3C//DTD SVG 1.1//EN" "http://www.w3.org/Graphics/SVG/1.1/DTD/svg11.dtd">
<svg xmlns="http://www.w3.org/2000/svg" version="1.1" width="1080px" height="1080px" style="shape-rendering:geometricPrecision; text-rendering:geometricPrecision; image-rendering:optimizeQuality; fill-rule:evenodd; clip-rule:evenodd" xmlns:xlink="http://www.w3.org/1999/xlink">
<g><path style="opacity:0.995" fill="#99003e" d="M 461.5,74.5 C 628.263,68.868 763.43,130.868 867,260.5C 939.025,354.586 967.358,460.586 952,578.5C 946.202,613.057 935.702,646.057 920.5,677.5C 927.089,534.192 873.422,419.359 759.5,333C 659.14,264.271 549.806,244.938 431.5,275C 415.105,279.576 399.105,284.909 383.5,291C 387.543,251.09 381.043,212.923 364,176.5C 351.669,151.15 336.835,127.483 319.5,105.5C 365.429,88.2493 412.762,77.916 461.5,74.5 Z"/></g>
<g><path style="opacity:0.984" fill="#00a1b7" d="M 238.5,337.5 C 237.662,337.842 237.328,338.508 237.5,339.5C 235.75,340.659 234.75,342.326 234.5,344.5C 229.411,351.672 225.077,359.339 221.5,367.5C 219.412,369.336 218.079,371.669 217.5,374.5C 216.662,374.842 216.328,375.508 216.5,376.5C 215.662,376.842 215.328,377.508 215.5,378.5C 214.662,378.842 214.328,379.508 214.5,380.5C 213.662,380.842 213.328,381.508 213.5,382.5C 212.833,382.5 212.5,382.833 212.5,383.5C 212.5,383.833 212.5,384.167 212.5,384.5C 211.427,385.251 211.26,386.251 212,387.5C 212.717,386.956 213.217,386.289 213.5,385.5C 213.833,385.5 214.167,385.5 214.5,385.5C 215.167,385.5 215.5,385.167 215.5,384.5C 216.167,384.5 216.5,384.167 216.5,383.5C 217.492,383.672 218.158,383.338 218.5,382.5C 219.167,382.5 219.5,382.167 219.5,381.5C 220.492,381.672 221.158,381.338 221.5,380.5C 222.167,380.5 222.5,380.167 222.5,379.5C 223.492,379.672 224.158,379.338 224.5,378.5C 225.167,378.5 225.5,378.167 225.5,377.5C 226.492,377.672 227.158,377.338 227.5,376.5C 228.167,376.5 228.5,376.167 228.5,375.5C 229.492,375.672 230.158,375.338 230.5,374.5C 231.167,374.5 231.5,374.167 231.5,373.5C 233.027,373.573 234.027,372.906 234.5,371.5C 236.027,371.573 237.027,370.906 237.5,369.5C 239.027,369.573 240.027,368.906 240.5,367.5C 242.027,367.573 243.027,366.906 243.5,365.5C 245.027,365.573 246.027,364.906 246.5,363.5C 261.947,353.937 277.28,344.104 292.5,334C 295.861,328.448 298.527,322.614 300.5,316.5C 301.338,316.158 301.672,315.492 301.5,314.5C 302.338,314.158 302.672,313.492 302.5,312.5C 303.338,312.158 303.672,311.492 303.5,310.5C 304.338,310.158 304.672,309.492 304.5,308.5C 305.338,308.158 305.672,307.492 305.5,306.5C 306.338,306.158 306.672,305.492 306.5,304.5C 307.338,304.158 307.672,303.492 307.5,302.5C 308.338,302.158 308.672,301.492 308.5,300.5C 309.338,300.158 309.672,299.492 309.5,298.5C 310.338,298.158 310.672,297.492 310.5,296.5C 311.338,296.158 311.672,295.492 311.5,294.5C 312.338,294.158 312.672,293.492 312.5,292.5C 313.338,292.158 313.672,291.492 313.5,290.5C 314.338,290.158 314.672,289.492 314.5,288.5C 315.338,288.158 315.672,287.492 315.5,286.5C 325.803,265.894 336.136,245.227 346.5,224.5C 348.673,255.805 350.34,287.138 351.5,318.5C 395.552,308.924 439.552,299.424 483.5,290C 439.5,317.667 395.5,345.333 351.5,373C 371.333,392.833 391.167,412.667 411,432.5C 411.688,433.332 411.521,433.998 410.5,434.5C 373.932,424.191 337.266,414.191 300.5,404.5C 241.259,431.038 182.092,457.705 123,484.5C 124.435,453.192 134.769,425.192 154,400.5C 168.536,382.964 184.702,367.131 202.5,353C 213.006,345.498 224.506,339.998 237,336.5C 237.765,336.57 238.265,336.903 238.5,337.5 Z M 237.5,339.5 C 237.25,341.674 236.25,343.341 234.5,344.5C 234.75,342.326 235.75,340.659 237.5,339.5 Z M 234.5,344.5 C 230.923,352.661 226.589,360.328 221.5,367.5C 225.077,359.339 229.411,351.672 234.5,344.5 Z M 246.5,363.5 C 246.027,364.906 245.027,365.573 243.5,365.5C 243.973,364.094 244.973,363.427 246.5,363.5 Z M 243.5,365.5 C 243.027,366.906 242.027,367.573 240.5,367.5C 240.973,366.094 241.973,365.427 243.5,365.5 Z M 221.5,367.5 C 220.921,370.331 219.588,372.664 217.5,374.5C 218.079,371.669 219.412,369.336 221.5,367.5 Z M 240.5,367.5 C 240.027,368.906 239.027,369.573 237.5,369.5C 237.973,368.094 238.973,367.427 240.5,367.5 Z M 237.5,369.5 C 237.027,370.906 236.027,371.573 234.5,371.5C 234.973,370.094 235.973,369.427 237.5,369.5 Z M 234.5,371.5 C 234.027,372.906 233.027,373.573 231.5,373.5C 231.973,372.094 232.973,371.427 234.5,371.5 Z M 212.5,384.5 C 212.5,385.167 212.833,385.5 213.5,385.5C 213.217,386.289 212.717,386.956 212,387.5C 211.26,386.251 211.427,385.251 212.5,384.5 Z"/></g>
<g><path style="opacity:0.991" fill="#9a003d" d="M 315.5,286.5 C 314.662,286.842 314.328,287.508 314.5,288.5C 313.662,288.842 313.328,289.508 313.5,290.5C 312.662,290.842 312.328,291.508 312.5,292.5C 311.662,292.842 311.328,293.508 311.5,294.5C 310.662,294.842 310.328,295.508 310.5,296.5C 309.662,296.842 309.328,297.508 309.5,298.5C 308.662,298.842 308.328,299.508 308.5,300.5C 307.662,300.842 307.328,301.508 307.5,302.5C 306.662,302.842 306.328,303.508 306.5,304.5C 305.662,304.842 305.328,305.508 305.5,306.5C 304.662,306.842 304.328,307.508 304.5,308.5C 303.662,308.842 303.328,309.508 303.5,310.5C 302.662,310.842 302.328,311.508 302.5,312.5C 301.662,312.842 301.328,313.508 301.5,314.5C 300.662,314.842 300.328,315.508 300.5,316.5C 297.401,321.858 294.401,327.358 291.5,333C 276.088,342.695 261.088,352.861 246.5,363.5C 244.973,363.427 243.973,364.094 243.5,365.5C 241.973,365.427 240.973,366.094 240.5,367.5C 238.973,367.427 237.973,368.094 237.5,369.5C 235.973,369.427 234.973,370.094 234.5,371.5C 232.973,371.427 231.973,372.094 231.5,373.5C 230.833,373.5 230.5,373.833 230.5,374.5C 229.508,374.328 228.842,374.662 228.5,375.5C 227.833,375.5 227.5,375.833 227.5,376.5C 226.508,376.328 225.842,376.662 225.5,377.5C 224.833,377.5 224.5,377.833 224.5,378.5C 223.508,378.328 222.842,378.662 222.5,379.5C 221.833,379.5 221.5,379.833 221.5,380.5C 220.508,380.328 219.842,380.662 219.5,381.5C 218.833,381.5 218.5,381.833 218.5,382.5C 217.508,382.328 216.842,382.662 216.5,383.5C 215.833,383.5 215.5,383.833 215.5,384.5C 214.833,384.5 214.5,384.833 214.5,385.5C 214.167,385.5 213.833,385.5 213.5,385.5C 212.833,385.5 212.5,385.167 212.5,384.5C 212.5,384.167 212.5,383.833 212.5,383.5C 213.167,383.5 213.5,383.167 213.5,382.5C 214.338,382.158 214.672,381.492 214.5,380.5C 215.338,380.158 215.672,379.492 215.5,378.5C 216.338,378.158 216.672,377.492 216.5,376.5C 217.338,376.158 217.672,375.492 217.5,374.5C 219.588,372.664 220.921,370.331 221.5,367.5C 226.589,360.328 230.923,352.661 234.5,344.5C 236.25,343.341 237.25,341.674 237.5,339.5C 238.338,339.158 238.672,338.492 238.5,337.5C 249.061,322.773 262.061,310.607 277.5,301C 289.715,294.475 302.215,288.642 315,283.5C 315.483,284.448 315.649,285.448 315.5,286.5 Z"/></g>
<g><path style="opacity:0.996" fill="#00a1b7" d="M 518.5,285.5 C 578.954,283.157 636.288,295.324 690.5,322C 763.724,356.891 818.891,410.391 856,482.5C 899.527,569.471 906.86,659.471 878,752.5C 838.432,871.068 759.265,949.901 640.5,989C 585.589,1004.51 529.922,1007.84 473.5,999C 371.676,979.472 298.843,922.972 255,829.5C 220.408,741.082 227.408,656.082 276,574.5C 286.531,557.803 298.031,541.803 310.5,526.5C 310.833,526.833 311.167,527.167 311.5,527.5C 290.744,580.061 285.911,634.061 297,689.5C 311.863,750.659 344.03,800.493 393.5,839C 430.53,867.513 471.864,887.513 517.5,899C 529.405,901.701 541.405,903.368 553.5,904C 498.168,863.336 451.002,814.836 412,758.5C 358.951,671.439 348.284,579.439 380,482.5C 385.42,467.661 391.92,453.327 399.5,439.5C 401.667,439.167 403.833,438.833 406,438.5C 413.531,439.198 421.031,439.698 428.5,440C 406.554,418.054 384.554,396.054 362.5,374C 409.532,344.485 456.865,315.485 504.5,287C 509.351,286.826 514.018,286.326 518.5,285.5 Z"/></g>
<g><path style="opacity:0.98" fill="#c0cad1" d="M 299.5,413.5 C 319.189,418.506 338.856,423.673 358.5,429C 313.158,493.011 253.158,537.011 178.5,561C 218.965,530.874 252.798,494.707 280,452.5C 287.566,440.036 294.066,427.036 299.5,413.5 Z"/></g>
<g><path style="opacity:1" fill="#09899b" d="M 646.5,477.5 C 674.329,497.481 696.163,522.481 712,552.5C 648.751,613.225 575.251,657.225 491.5,684.5C 485.048,643.34 488.381,603.006 501.5,563.5C 529.598,547.948 557.598,532.115 585.5,516C 606.235,503.642 626.569,490.809 646.5,477.5 Z"/></g>
<g><path style="opacity:1" fill="#c1cbd2" d="M 481.5,522.5 C 486.214,522.173 490.88,522.507 495.5,523.5C 473.448,575.271 464.615,629.271 469,685.5C 472.618,725.638 482.951,763.971 500,800.5C 517.725,837.101 538.058,871.768 561,904.5C 519.099,867.939 481.432,827.606 448,783.5C 422.568,748.641 402.902,710.641 389,669.5C 375.869,623.415 375.036,577.082 386.5,530.5C 418.338,528.129 450.005,525.462 481.5,522.5 Z"/></g>
<g><path style="opacity:1" fill="#09899b" d="M 737.5,589.5 C 738.496,589.414 739.329,589.748 740,590.5C 760.227,621.513 770.561,655.513 771,692.5C 713.769,768.674 638.436,817.008 545,837.5C 544.167,837.167 543.333,836.833 542.5,836.5C 522.518,803.031 508.518,767.197 500.5,729C 588.74,697.463 667.74,650.963 737.5,589.5 Z"/></g>
</svg>
