<?xml version="1.0" encoding="UTF-8"?>
<!DOCTYPE svg PUBLIC "-//W3C//DTD SVG 1.1//EN" "http://www.w3.org/Graphics/SVG/1.1/DTD/svg11.dtd">
<svg xmlns="http://www.w3.org/2000/svg" version="1.1" width="40px" height="44px" style="shape-rendering:geometricPrecision; text-rendering:geometricPrecision; image-rendering:optimizeQuality; fill-rule:evenodd; clip-rule:evenodd" xmlns:xlink="http://www.w3.org/1999/xlink">
<g><path style="opacity:1" fill="#c5a860" d="M 18.5,-0.5 C 19.1667,-0.5 19.8333,-0.5 20.5,-0.5C 21.9651,4.5621 23.6318,9.5621 25.5,14.5C 21.5,15.8333 17.5,15.8333 13.5,14.5C 15.3682,9.5621 17.0349,4.5621 18.5,-0.5 Z"/></g>
<g><path style="opacity:0.965" fill="#c4a760" d="M 13.5,14.5 C 17.5,15.8333 21.5,15.8333 25.5,14.5C 27.8398,13.914 30.0065,12.914 32,11.5C 32.1554,13.856 32.1554,16.1893 32,18.5C 34.733,21.0625 37.233,23.7291 39.5,26.5C 39.5,27.1667 39.5,27.8333 39.5,28.5C 34.1667,28.5 28.8333,28.5 23.5,28.5C 22.3414,33.4678 21.3414,38.4678 20.5,43.5C 19.8333,43.5 19.1667,43.5 18.5,43.5C 17.6586,38.4678 16.6586,33.4678 15.5,28.5C 10.1667,28.5 4.83333,28.5 -0.5,28.5C -0.5,27.8333 -0.5,27.1667 -0.5,26.5C 1.76704,23.7291 4.26704,21.0625 7,18.5C 6.84464,16.1893 6.84464,13.856 7,11.5C 8.99349,12.914 11.1602,13.914 13.5,14.5 Z M 14.5,17.5 C 15.9649,18.4057 16.9649,19.739 17.5,21.5C 16.675,22.3857 15.675,22.719 14.5,22.5C 14.5,20.8333 14.5,19.1667 14.5,17.5 Z M 23.5,17.5 C 24.4511,18.9187 24.7845,20.5853 24.5,22.5C 23.325,22.719 22.325,22.3857 21.5,21.5C 22.1799,20.1401 22.8466,18.8068 23.5,17.5 Z"/></g>
</svg>
